HIERARCHY
ROOT Hips
{
 OFFSET 0.000000 0.000000 0.000000
 CHANNELS 6 Xposition Yposition Zposition Yrotation Xrotation Zrotation
 JOINT Chest
 {
  OFFSET 0.000000 12.953391 -0.028419
  CHANNELS 3 Yrotation Xrotation Zrotation
  JOINT Chest2
  {
   OFFSET 0.000000 10.280254 0.051622
   CHANNELS 3 Yrotation Xrotation Zrotation
   JOINT Chest3
   {
    OFFSET 0.000000 9.287180 0.000000
    CHANNELS 3 Yrotation Xrotation Zrotation
    JOINT Chest4
    {
     OFFSET 0.000000 9.287180 0.000000
     CHANNELS 3 Yrotation Xrotation Zrotation
     JOINT Neck
     {
      OFFSET 0.000000 13.296264 0.000000
      CHANNELS 3 Yrotation Xrotation Zrotation
      JOINT Head
      {
       OFFSET 0.000000 8.959264 0.099003
       CHANNELS 3 Yrotation Xrotation Zrotation
       End Site
       {
        OFFSET 0.000000 17.121337 0.039303
       }
      }
     }
     JOINT RightCollar
     {
      OFFSET -3.193511 7.451388 0.000000
      CHANNELS 3 Yrotation Xrotation Zrotation
      JOINT RightShoulder
      {
       OFFSET -15.792092 0.000000 0.000000
       CHANNELS 3 Yrotation Xrotation Zrotation
       JOINT RightElbow
       {
        OFFSET -31.151839 0.000000 0.000000
        CHANNELS 3 Yrotation Xrotation Zrotation
        JOINT RightWrist
        {
         OFFSET -25.536298 0.000000 0.002321
         CHANNELS 3 Yrotation Xrotation Zrotation
         End Site
         {
          OFFSET -19.133213 0.000000 0.000000
         }
        }
       }
      }
     }
     JOINT LeftCollar
     {
      OFFSET 3.193511 7.451388 0.000000
      CHANNELS 3 Yrotation Xrotation Zrotation
      JOINT LeftShoulder
      {
       OFFSET 15.792092 0.000000 0.000000
       CHANNELS 3 Yrotation Xrotation Zrotation
       JOINT LeftElbow
       {
        OFFSET 31.151839 0.000000 0.000000
        CHANNELS 3 Yrotation Xrotation Zrotation
        JOINT LeftWrist
        {
         OFFSET 25.536298 0.000000 0.002321
         CHANNELS 3 Yrotation Xrotation Zrotation
         End Site
         {
          OFFSET 19.133213 0.000000 0.000000
         }
        }
       }
      }
     }
    }
   }
  }
 }
 JOINT RightHip
 {
  OFFSET -10.745749 0.139252 0.014209
  CHANNELS 3 Yrotation Xrotation Zrotation
  JOINT RightKnee
  {
   OFFSET 0.000000 -43.743899 -0.006071
   CHANNELS 3 Yrotation Xrotation Zrotation
   JOINT RightAnkle
   {
    OFFSET 0.000000 -43.214199 0.089931
    CHANNELS 3 Yrotation Xrotation Zrotation
    JOINT RightToe
    {
     OFFSET 0.000000 -9.699830 19.151588
     CHANNELS 3 Yrotation Xrotation Zrotation
     End Site
     {
      OFFSET 0.000000 -1.292898 4.893873
     }
    }
   }
  }
 }
 JOINT LeftHip
 {
  OFFSET 10.745749 0.139252 0.014209
  CHANNELS 3 Yrotation Xrotation Zrotation
  JOINT LeftKnee
  {
   OFFSET 0.000000 -43.743899 -0.006071
   CHANNELS 3 Yrotation Xrotation Zrotation
   JOINT LeftAnkle
   {
    OFFSET 0.000000 -43.214199 0.089931
    CHANNELS 3 Yrotation Xrotation Zrotation
    JOINT LeftToe
    {
     OFFSET 0.000000 -9.699830 19.151588
     CHANNELS 3 Yrotation Xrotation Zrotation
     End Site
     {
      OFFSET 0.000000 -1.292898 4.893873
     }
    }
   }
  }
 }
}
MOTION
Frames: 12
Frame Time: 0.016667
2.151011 97.930526 65.218682 57.253439 -7.907684 2.156941 0.675127 10.568817 5.858584 0.164732 4.705449 2.576936 0.164732 4.705449 2.576936 0.103601 3.529856 1.930344 -8.475628 22.345258 -0.821508 -15.078872 5.600817 0.820154 10.587303 -0.337477 4.986295 13.015142 -19.219340 61.146200 1.870070 27.376747 -5.798195 8.589563 26.084140 -38.928063 -2.687807 -3.952369 -12.234837 -2.069881 11.885323 -57.344956 -118.825926 50.593670 -77.322069 -10.184960 10.771176 66.213304 -7.779570 13.409625 -0.076206 -1.843188 0.192686 -0.497786 -6.515371 -8.007662 -1.089256 0.000000 0.000000 0.000000 25.359831 7.262511 9.723137 0.815184 5.533687 -0.423490 -2.801332 -2.352394 -4.902181 0.000000 0.000000 0.000000
2.103927 97.933913 65.067825 57.369859 -7.785472 2.230854 0.660037 10.517987 5.782928 0.160447 4.682572 2.543985 0.160451 4.682574 2.543983 0.100745 3.512673 1.905691 -8.472439 22.358242 -0.783702 -15.082854 5.628970 0.885907 10.497678 -0.320671 5.055950 13.007010 -19.216822 61.147336 1.922662 27.316955 -5.791809 8.606247 26.096481 -38.939773 -2.745010 -3.887400 -12.069524 -2.157062 11.850446 -57.366898 -118.804392 50.552301 -77.327562 -10.140619 10.766805 66.250186 -7.637985 13.258826 -0.153844 -1.945638 0.069628 -0.422109 -6.678687 -7.766823 -1.241344 0.000000 -0.000000 -0.000000 25.205458 7.082428 9.550519 0.853397 5.664155 -0.402593 -2.828795 -2.481496 -4.947094 0.000000 -0.000000 0.000000
2.056844 97.937300 64.916967 57.486403 -7.663409 2.304997 0.644918 10.467278 5.707201 0.156122 4.659751 2.510998 0.156125 4.659753 2.510998 0.097849 3.495527 1.881015 -8.469195 22.371202 -0.745870 -15.086750 5.657114 0.951676 10.408169 -0.303684 5.125683 12.998878 -19.214301 61.148482 1.975225 27.257144 -5.785418 8.622942 26.108814 -38.951475 -2.801818 -3.822392 -11.904181 -2.244199 11.815482 -57.388681 -118.782943 50.510907 -77.333108 -10.096291 10.762377 66.287071 -7.496427 13.108563 -0.232507 -2.048412 -0.053524 -0.346803 -6.842332 -7.526082 -1.393817 0.000000 0.000000 -0.000000 25.051869 6.901903 9.378283 0.891712 5.794591 -0.381557 -2.856215 -2.610590 -4.991996 0.000000 0.000000 0.000000
1.999818 97.942774 64.768118 57.615720 -7.536195 2.362059 0.631315 10.421294 5.641963 0.152154 4.639067 2.482596 0.152154 4.639067 2.482596 0.095173 3.479986 1.859771 -8.465217 22.383148 -0.707946 -15.089380 5.683345 1.017517 10.325630 -0.286068 5.192474 12.998905 -19.214835 61.143660 2.032875 27.169911 -5.782017 8.632854 26.119728 -38.970256 -2.857304 -3.757382 -11.745983 -2.326050 11.783915 -57.410249 -118.776688 50.474433 -77.349884 -10.048864 10.757889 66.323967 -7.349214 12.943703 -0.286578 -2.124311 -0.161222 -0.280800 -7.047108 -7.310373 -1.546543 0.000000 0.000000 0.000000 24.905201 6.694935 9.205032 0.908480 5.926887 -0.363903 -2.887464 -2.713501 -5.019441 0.000000 -0.000000 0.000000
1.929456 97.951240 64.623673 57.759633 -7.402454 2.392640 0.620971 10.381425 5.592309 0.149192 4.621162 2.460990 0.149192 4.621162 2.460990 0.093190 3.466539 1.843610 -8.459616 22.393527 -0.669283 -15.089334 5.706638 1.084423 10.252742 -0.269405 5.254762 13.009580 -19.216443 61.133624 2.099922 27.046002 -5.781131 8.629837 26.127571 -38.997806 -2.910668 -3.692295 -11.598196 -2.399111 11.753612 -57.429466 -118.802790 50.444328 -77.394989 -9.997945 10.752843 66.362304 -7.182528 12.756289 -0.300176 -2.152202 -0.241494 -0.228967 -7.328416 -7.136290 -1.704720 0.000000 0.000000 0.000000 24.765080 6.450383 9.027835 0.896614 6.065574 -0.349099 -2.921226 -2.779957 -5.021226 0.000000 0.000000 0.000000
1.849150 97.961794 64.481236 57.916176 -7.263448 2.406289 0.612106 10.346251 5.553135 0.146584 4.605377 2.443971 0.146584 4.605377 2.443971 0.091428 3.454685 1.830883 -8.453249 22.402869 -0.630520 -15.087971 5.727973 1.151416 10.186864 -0.252235 5.314167 13.028395 -19.221097 61.117575 2.172072 26.894701 -5.783314 8.620053 26.133985 -39.032444 -2.962616 -3.627284 -11.457472 -2.466918 11.726762 -57.448472 -118.844006 50.419211 -77.451286 -9.943953 10.747678 66.400683 -7.010477 12.553722 -0.289787 -2.153034 -0.306457 -0.186423 -7.650552 -6.987258 -1.863466 0.000000 0.000000 0.000000 24.632032 6.179696 8.849496 0.863318 6.206207 -0.337862 -2.958933 -2.820178 -5.005546 0.000000 0.000000 0.000000
1.759143 97.973802 64.335629 58.092289 -7.117840 2.414217 0.600962 10.316168 5.519716 0.142769 4.591834 2.429529 0.142769 4.591834 2.429529 0.088732 3.444507 1.820096 -8.448041 22.411807 -0.593512 -15.088233 5.748452 1.215600 10.126916 -0.229604 5.372476 13.055989 -19.237769 61.087181 2.241554 26.716416 -5.793075 8.615196 26.142503 -39.076188 -3.014423 -3.562765 -11.321031 -2.534825 11.713337 -57.473597 -118.863891 50.399791 -77.478668 -9.885011 10.743769 66.434922 -6.869210 12.343904 -0.278218 -2.162718 -0.376696 -0.147585 -7.947614 -6.838422 -2.007507 0.000000 0.000000 0.000000 24.513607 5.890944 8.677012 0.808337 6.337232 -0.335617 -3.008617 -2.838704 -4.979558 0.000000 -0.000000 0.000000
1.660872 97.986701 64.186833 58.292116 -6.967938 2.417166 0.583896 10.291867 5.492124 0.136127 4.580798 2.417777 0.136127 4.580797 2.417777 0.083885 3.436199 1.811343 -8.444256 22.420889 -0.559722 -15.090174 5.768952 1.274355 10.073146 -0.198215 5.430154 13.103912 -19.272353 61.037106 2.291647 26.511029 -5.816701 8.621560 26.153436 -39.135035 -3.067328 -3.499005 -11.186810 -2.604695 11.720148 -57.508057 -118.841926 50.383067 -77.457017 -9.816811 10.739288 66.464495 -6.764913 12.134898 -0.268195 -2.200238 -0.459733 -0.112251 -8.197053 -6.684727 -2.126619 -0.000000 0.000000 -0.000000 24.416370 5.588639 8.518253 0.732344 6.453530 -0.345172 -3.079084 -2.835242 -4.944426 0.000000 -0.000000 0.000000
1.552899 98.001055 64.034867 58.511447 -6.811385 2.414620 0.564567 10.272629 5.470346 0.128292 4.571997 2.408630 0.128292 4.571996 2.408630 0.078116 3.429564 1.804551 -8.441603 22.429571 -0.527672 -15.093692 5.788606 1.330319 10.025391 -0.161451 5.486792 13.160584 -19.318816 60.972471 2.339253 26.278651 -5.847744 8.632903 26.166458 -39.202947 -3.119999 -3.435785 -11.056791 -2.674788 11.740416 -57.548557 -118.798736 50.371852 -77.406517 -9.743669 10.735983 66.490092 -6.691367 11.918593 -0.256691 -2.246612 -0.547909 -0.080663 -8.421380 -6.531140 -2.230854 0.000000 0.000000 0.000000 24.333762 5.268631 8.364635 0.634592 6.560319 -0.363823 -3.161433 -2.809983 -4.899094 0.000000 -0.000000 -0.000000
1.431144 98.017923 63.874613 58.744757 -6.639942 2.415961 0.550153 10.256774 5.449502 0.122568 4.564761 2.399776 0.122568 4.564761 2.399776 0.073921 3.424114 1.797962 -8.441158 22.436845 -0.494793 -15.101473 5.805927 1.388503 9.981980 -0.124380 5.542891 13.191847 -19.368307 60.900830 2.426894 26.020069 -5.871865 8.642116 26.184176 -39.263880 -3.169844 -3.372833 -10.934236 -2.745055 11.763755 -57.591614 -118.759516 50.375600 -77.347421 -9.676594 10.740653 66.509347 -6.665860 11.678983 -0.257420 -2.280887 -0.639021 -0.047963 -8.622414 -6.367833 -2.335212 0.000000 -0.000000 0.000000 24.253855 4.925969 8.198470 0.512630 6.661547 -0.388750 -3.237125 -2.768242 -4.847373 0.000000 -0.000000 -0.000000
1.295527 98.035994 63.705346 58.975377 -6.449568 2.418632 0.548234 10.242658 5.431114 0.122296 4.558449 2.391727 0.122296 4.558451 2.391728 0.073802 3.419379 1.791935 -8.443021 22.443701 -0.460709 -15.113777 5.822841 1.449494 9.942062 -0.087044 5.599373 13.182673 -19.421187 60.824089 2.571963 25.733008 -5.881142 8.653464 26.209790 -39.305324 -3.215772 -3.309878 -10.821709 -2.817442 11.792531 -57.639712 -118.722461 50.400981 -77.272973 -9.615971 10.758291 66.513834 -6.669712 11.407822 -0.262514 -2.284463 -0.727482 -0.017946 -8.820965 -6.194683 -2.443055 0.000000 0.000000 0.000000 24.187172 4.552217 8.027201 0.358308 6.771948 -0.431383 -3.293718 -2.726385 -4.784048 0.000000 0.000000 0.000000
1.146129 98.056579 63.527791 59.219978 -6.244340 2.425466 0.551212 10.231937 5.413611 0.124131 4.553701 2.383948 0.124131 4.553703 2.383948 0.075254 3.415823 1.786093 -8.447030 22.449133 -0.425753 -15.130259 5.837436 1.512761 9.906555 -0.049489 5.655378 13.147825 -19.477208 60.740811 2.756765 25.419823 -5.884221 8.662704 26.240133 -39.339761 -3.258823 -3.247294 -10.716536 -2.890068 11.824488 -57.690244 -118.689021 50.441154 -77.189468 -9.561244 10.783965 66.512052 -6.721421 11.113446 -0.279274 -2.275958 -0.818896 0.013294 -8.996262 -6.011812 -2.550968 0.000000 0.000000 0.000000 24.123688 4.156013 7.842940 0.179784 6.876903 -0.480670 -3.343584 -2.668067 -4.714353 -0.000000 -0.000000 0.000000
